PathFileType	4	(X/Y/Z)	C:/Users/beibeiliu/ov580/test_trc\sequence.31_training_dense_left.trc
DataRate	CameraRate	NumFrames	NumMarkers	Units	OrigDataRate	OrigDataStartFrame	OrigNumFrames
120	120	18	19	mm	120	1	71
Frame#	Time	ThumbCMC			ThumbMCP			ThumbIP			ThumbTip			IndexMCP			IndexPIP			IndexTip			MiddleMCP			MiddlePIP			MiddleTip			RingMCP			RingPIP			RingTip			PinkyMCP			PinkyPIP			PinkyTip			BackHand1			BackHand2			BackHand3	
		X0	Y0	Z0	X1	Y1	Z1	X2	Y2	Z2	X3	Y3	Z3	X4	Y4	Z4	X5	Y5	Z5	X6	Y6	Z6	X7	Y7	Z7	X8	Y8	Z8	X9	Y9	Z9	X10	Y10	Z10	X11	Y11	Z11	X12	Y12	Z12	X13	Y13	Z13	X14	Y14	Z14	X15	Y15	Z15	X16	Y16	Z16	X17	Y17	Z17	X18	Y18	Z18	
0	0	-139.182	40.9829	39.1287	-126.441	24.1584	19.944	-115.859	15.4602	-0.425185	-111.619	4.30369	-21.6573	-150.963	33.9455	-28.1663	-144.021	19.0208	-46.6183	-137.334	-5.71544	-62.1237	-172.307	30.272	-33.8087	-172.515	16.5708	-56.6234	-171.441	-5.16787	-73.8273	-190.14	25.458	-27.8255	-192.044	15.8144	-45.6428	-191.536	0.209182	-62.6789	-210.18	17.2714	-11.2787	-212.606	8.56781	-24.9983	-211.942	-2.58654	-44.5587	-190.982	45.9958	13.2877	-191.726	53.7704	43.3618	-167.125	57.258	25.1051	
1	0.00833333	-140.57	39.3727	36.3429	-125.196	24.586	17.7889	-120.824	15.1942	-1.53641	-112.366	3.77374	-21.7768	-151.087	32.1993	-30.3512	-144.962	14.8298	-50.5799	-138.967	-8.75845	-62.1258	-171.543	28.3237	-36.9466	-171.717	17.146	-55.4255	-171.594	-6.5442	-74.4326	-194.239	23.8777	-26.0534	-190.784	13.7642	-46.343	-190.567	-4.18164	-67.274	-207.005	17.7256	-8.60911	-213.745	4.30841	-29.5049	-215.438	-4.01773	-43.6197	-192.75	43.9041	16.5081	-190.647	53.4835	39.7113	-165.849	55.2383	22.7264	
2	0.0166667	-140.305	37.4377	37.7235	-126.668	23.1521	19.9075	-117.056	12.903	-5.15975	-113.236	4.09637	-18.3038	-145.047	29.4874	-33.6655	-144.816	14.5522	-49.3223	-135.243	-6.32838	-60.8087	-173.273	28.1859	-34.5406	-171.163	14.7532	-56.7577	-168.393	-5.48912	-74.5845	-188.561	24.3296	-25.7319	-190.215	9.2407	-50.4848	-190.718	-6.09457	-66.3843	-208.619	16.9015	-10.7093	-213.164	4.01925	-28.2428	-212.293	-6.78211	-43.6685	-192.928	43.433	14.9889	-189.071	50.9331	38.9108	-166.692	53.7825	24.9007	
3	0.025	-136.843	37.6316	32.1452	-126.898	22.7153	15.9808	-118.218	13.3797	-4.14017	-111.472	4.15481	-18.0668	-147.132	29.3796	-34.034	-139.531	12.9383	-52.4991	-140.115	-6.27463	-60.9585	-170.266	29.4492	-34.469	-170.532	13.648	-59.4524	-169.917	-7.0959	-75.3394	-187.81	23.9981	-29.6213	-190.197	9.64987	-50.4743	-187.745	-2.81981	-64.032	-203.386	18.4162	-11.8635	-208.729	6.92744	-31.4608	-211.516	-6.14018	-46.3873	-190.422	42.6369	11.1974	-192.368	50.4392	36.8666	-164.684	54.0932	21.0285	
4	0.0333333	-140.554	38.9959	34.9457	-124.762	24.7175	12.9976	-114.465	15.7537	-4.1446	-108.678	5.72959	-22.0343	-143.472	36.0469	-32.5433	-140.102	21.0123	-51.2843	-133.586	-1.16838	-62.8959	-166.758	32.8381	-41.8116	-165.362	15.9143	-62.6158	-164.902	-2.29621	-76.1881	-190.321	25.7527	-29.9948	-185.861	11.8372	-54.1244	-183.463	-7.3647	-66.3761	-207.041	18.5683	-15.4953	-204.31	9.33816	-33.408	-204.14	-8.03648	-48.1957	-190.738	46.7392	10.1956	-186.427	53.911	34.1866	-164.611	55.393	20.3485	
5	0.0416667	-140.546	44.7265	29.8374	-125.762	31.2236	12.4783	-116.775	22.6629	-9.30016	-108.397	12.2767	-25.2956	-142.485	45.7839	-32.2308	-140.611	26.8442	-54.9431	-131.138	8.4266	-63.6636	-168.893	38.8899	-41.7413	-163.128	25.5235	-62.9307	-160.985	0.835889	-75.478	-188.409	31.51	-32.6363	-182.166	14.1529	-55.0307	-174.433	-5.054	-60.8744	-202.311	23.9067	-19.5201	-198.492	12.0964	-35.8342	-188.301	-9.40118	-42.9693	-188.311	51.7624	12.3063	-190.238	55.7967	35.2115	-163.018	61.7552	21.3692	
6	0.05	-139.315	53.1216	30.7386	-122.949	39.311	11.8362	-116.893	30.3569	-4.80107	-109.906	22.1254	-24.3745	-145.359	53.885	-36.4158	-135.857	43.1284	-52.1345	-128.273	21.1171	-63.8422	-166.453	46.9254	-42.7592	-157.076	36.0258	-61.8686	-146.82	7.83398	-73.8005	-179.405	38.4399	-32.4653	-170.581	18.7173	-51.6161	-152.636	-3.8805	-46.3012	-197.234	23.6911	-23.086	-182.472	6.59074	-36.5981	-165.627	-6.48439	-29.6333	-187.734	53.7188	11.768	-194.203	57.385	35.8819	-169.626	68.1182	22.908	
7	0.0583333	-142.335	63.0433	35.4447	-123.212	49.4369	15.5813	-111.514	41.904	-7.60588	-104.976	30.7515	-24.3597	-145.948	64.3378	-35.2601	-132.275	51.2916	-54.6946	-123.612	34.091	-64.2875	-161.67	52.6019	-42.625	-150.484	40.5984	-61.2903	-129.342	15.9037	-69.1038	-171.907	37.7573	-34.2942	-156.676	14.7932	-43.021	-141.809	3.58169	-24.6383	-184.205	19.2885	-26.1644	-165.217	7.51227	-27.5773	-148.72	5.31784	-4.45434	-193.484	52.0039	9.14146	-196.341	57.0768	32.1926	-172.184	74.8142	21.2543	
8	0.0666667	-144.93	68.3704	30.8655	-124.048	54.6031	12.0343	-116.418	43.6788	-6.03688	-111.07	28.5338	-25.7938	-148.209	68.7016	-34.4756	-132.963	56.9353	-56.7019	-114.025	43.7764	-67.5133	-160.327	53.6521	-40.6471	-145.044	38.1392	-62.968	-124.486	22.1335	-70.0811	-163.804	31.0847	-34.21	-142.654	13.9135	-31.4914	-133.069	16.1726	-3.65675	-174.864	15.3004	-20.0934	-150.994	8.09924	-15.555	-143.434	16.004	10.258	-190.432	50.1421	5.29574	-198.052	53.494	32.7159	-176.712	72.786	19.5017	
9	0.075	-148.947	70.2819	29.8574	-120.443	57.2909	10.7594	-112.7	43.537	-5.73856	-115.681	24.0132	-19.2234	-147.739	68.9144	-37.3012	-137.358	59.6164	-55.1161	-118.686	49.4625	-70.718	-156.365	51.4201	-43.7856	-140.82	42.0235	-62.2667	-121.042	26.908	-72.6598	-152.82	29.098	-31.5955	-133.235	13.8795	-21.6186	-132.029	23.0099	6.53225	-164.041	16.2403	-16.2774	-141.031	10.9429	-2.53761	-142.846	25.3054	17.2127	-190.979	43.7754	3.55387	-197.47	50.3091	26.4662	-179.255	72.3413	17.1514	
10	0.0833333	-148.513	74.6153	25.3447	-122.019	60.2562	9.75686	-113.979	42.7861	-7.18569	-115.49	20.0615	-19.9047	-147.845	67.0434	-39.7792	-134.091	63.5987	-56.8649	-116.64	53.258	-74.1502	-153.345	48.8299	-46.1766	-138.594	42.2523	-61.607	-119.975	27.5882	-75.3072	-149.146	23.6188	-27.2051	-125.771	18.8998	-14.4485	-131.511	31.6491	13.0564	-155.838	16.0337	-14.0365	-134.246	15.7762	1.87597	-142.081	30.3563	20.3009	-187.945	40.9411	2.33447	-194.386	47.6164	23.9955	-181.887	69.7583	12.8842	
11	0.0916667	-150.926	75.1853	26.5778	-118.526	66.226	10.0444	-109.765	48.4217	-6.64159	-114.287	25.4054	-15.9139	-145.8	70.5309	-41.6309	-131.044	66.1845	-59.6775	-117.535	59.7722	-73.1938	-151.641	50.3474	-44.4454	-135.329	41.8314	-63.9509	-114.002	32.2513	-79.6008	-144.799	27.8396	-26.2301	-120.7	27.3103	-13.3253	-128.55	34.3207	13.0194	-144.607	19.0621	-14.1174	-129.855	21.0044	0.718499	-141.317	33.8575	23.3468	-185.247	40.8218	-1.26916	-194.65	45.4272	23.9556	-178.2	71.6417	9.86372	
12	0.1	-150.504	77.5935	21.176	-122.508	66.5746	9.22014	-107.792	51.5684	-6.72047	-108.624	27.8617	-18.3151	-143.947	73.9616	-43.3773	-129.75	72.0252	-59.7863	-116.26	66.0341	-73.3697	-147.981	53.8505	-46.774	-131.769	44.7685	-65.2172	-115.76	36.2001	-78.9043	-140.976	28.6171	-27.8069	-117.218	32.953	-11.3277	-128.915	39.7267	12.1824	-145.975	17.8738	-13.6073	-127.313	22.6124	1.00728	-140.095	39.419	21.7219	-179.516	45.2499	-2.72067	-192.084	48.9105	25.1608	-178.748	71.2036	10.992	
13	0.108333	-147.131	80.0234	25.8418	-117.955	68.5641	6.29529	-109.462	52.083	-11.7322	-112.541	28.3491	-22.5041	-146.746	75.6351	-40.3203	-133.648	75.5316	-58.5535	-116.11	70.6207	-78.1844	-150.059	56.5869	-49.4822	-134.9	50.9437	-67.007	-120.345	42.7981	-82.0922	-141.34	33.8418	-31.2821	-120.794	30.7844	-17.8478	-128.434	40.4749	7.5899	-144.465	23.3907	-17.4445	-129.754	26.0495	2.42303	-141.123	41.6894	17.406	-180.299	48.8018	-3.00571	-192.485	53.5944	22.2054	-179.808	76.2333	12.8471	
14	0.116667	-141.293	80.705	24.3635	-118.511	66.0163	4.15817	-114.312	50.6105	-17.4886	-124.695	31.6916	-31.6785	-147.308	84.6761	-43.4199	-137.527	83.927	-61.8787	-124.193	81.1244	-82.1842	-157.204	68.4328	-48.4906	-146.864	62.4086	-70.6119	-135.598	49.883	-94.7061	-152.675	41.0718	-37.0533	-130.845	30.3581	-25.2587	-133.785	38.7001	-1.06115	-157.803	24.735	-23.5747	-140.578	23.2277	-9.0448	-147.4	41.4553	14.6785	-187.84	57.7394	-1.69828	-190.03	62.9915	22.9417	-175.105	82.6433	12.3292	
15	0.125	-135.144	71.0539	20.6	-122.801	54.9283	-6.14467	-127.062	44.353	-31.7636	-140.657	31.455	-43.1024	-141.396	90.0239	-42.3247	-132.56	90.8105	-63.3017	-128.411	87.7354	-89.2432	-164.143	77.9071	-49.8113	-156.708	74.3376	-77.3615	-156.096	67.0118	-98.8448	-168.61	49.6754	-42.2317	-150.236	30.5262	-36.8172	-148.105	32.3422	-9.12509	-178.331	35.2254	-30.2603	-159.217	26.5954	-18.7926	-154.571	40.8151	4.14853	-185.28	73.788	-4.25067	-187.192	75.4753	24.1135	-163.74	90.8139	11.0778	
16	0.133333	-132.821	59.5379	18.2953	-127.972	42.5519	-13.973	-138.114	36.6166	-33.579	-161.015	33.5549	-48.6322	-136.595	81.6194	-43.6444	-131.288	80.3547	-69.4731	-125.964	80.5387	-89.5063	-164.313	79.5941	-50.1028	-165.042	76.9849	-77.0454	-167.194	72.574	-100.39	-174.048	54.434	-44.3288	-169.891	27.356	-38.9882	-162.958	28.3144	-9.66576	-189.578	46.1042	-31.5802	-178.097	29.6549	-22.7241	-166.727	37.2212	-1.27368	-180.956	83.3478	-0.543459	-178.134	85.4227	22.2594	-154.194	88.1758	8.65992	
17	0.141667	-133.386	54.5026	19.1133	-130.839	35.7197	-5.32502	-142.237	30.0273	-27.8728	-167.008	28.9693	-41.4718	-132.673	69.5155	-42.5074	-130.714	65.4091	-68.5071	-125.278	62.5421	-87.7714	-161.146	70.8688	-54.9006	-160.379	65.4957	-75.1042	-166.316	59.7779	-102.904	-179.774	48.6384	-42.3763	-177.478	23.0439	-35.9882	-166.148	23.5215	-7.94822	-192.16	47.7468	-28.9165	-183.978	26.4363	-15.4617	-172.825	33.3588	2.33193	-176.904	83	-3.8742	-178.509	85.8972	21.1316	-153.672	83.875	9.92866	
